{
    "patcher": {
        "fileversion": 1,
        "appversion": {
            "major": 9,
            "minor": 1,
            "revision": 2,
            "architecture": "x64",
            "modernui": 1
        },
        "classnamespace": "box",
        "rect": [ 100.0, 100.0, 400.0, 400.0 ],
        "boxes": [
            {
                "box": {
                    "id": "obj-8",
                    "linecount": 2,
                    "maxclass": "comment",
                    "numinlets": 1,
                    "numoutlets": 0,
                    "patching_rect": [ 241.0, 80.0, 150.0, 33.0 ],
                    "text": "File path in here, as symbol"
                }
            },
            {
                "box": {
                    "comment": "file path",
                    "id": "obj-1",
                    "index": 0,
                    "maxclass": "inlet",
                    "numinlets": 0,
                    "numoutlets": 1,
                    "outlettype": [ "" ],
                    "patching_rect": [ 150.0, 30.0, 30.0, 30.0 ]
                }
            },
            {
                "box": {
                    "id": "obj-2",
                    "maxclass": "newobj",
                    "numinlets": 1,
                    "numoutlets": 1,
                    "outlettype": [ "" ],
                    "patching_rect": [ 150.0, 80.0, 79.0, 22.0 ],
                    "text": "prepend load"
                }
            },
            {
                "box": {
                    "id": "obj-3",
                    "maxclass": "newobj",
                    "numinlets": 1,
                    "numoutlets": 2,
                    "outlettype": [ "", "" ],
                    "patching_rect": [ 150.0, 130.0, 230.0, 22.0 ],
                    "saved_object_attributes": {
                        "autostart": 1,
                        "defer": 0,
                        "node_bin_path": "",
                        "npm_bin_path": "",
                        "watch": 0
                    },
                    "text": "node.script live-file-loader.js @autostart 1",
                    "textfile": {
                        "filename": "live-file-loader.js",
                        "flags": 0,
                        "embed": 0,
                        "autowatch": 1
                    }
                }
            },
            {
                "box": {
                    "id": "obj-4",
                    "maxclass": "newobj",
                    "numinlets": 3,
                    "numoutlets": 3,
                    "outlettype": [ "", "", "" ],
                    "patching_rect": [ 150.0, 180.0, 100.0, 22.0 ],
                    "text": "route done error"
                }
            },
            {
                "box": {
                    "comment": "done (normalized path)",
                    "id": "obj-5",
                    "index": 0,
                    "maxclass": "outlet",
                    "numinlets": 1,
                    "numoutlets": 0,
                    "patching_rect": [ 150.0, 250.0, 30.0, 30.0 ]
                }
            },
            {
                "box": {
                    "comment": "error",
                    "id": "obj-6",
                    "index": 0,
                    "maxclass": "outlet",
                    "numinlets": 1,
                    "numoutlets": 0,
                    "patching_rect": [ 220.0, 250.0, 30.0, 30.0 ]
                }
            }
        ],
        "lines": [
            {
                "patchline": {
                    "destination": [ "obj-2", 0 ],
                    "source": [ "obj-1", 0 ]
                }
            },
            {
                "patchline": {
                    "destination": [ "obj-3", 0 ],
                    "source": [ "obj-2", 0 ]
                }
            },
            {
                "patchline": {
                    "destination": [ "obj-4", 0 ],
                    "source": [ "obj-3", 0 ]
                }
            },
            {
                "patchline": {
                    "destination": [ "obj-5", 0 ],
                    "source": [ "obj-4", 0 ]
                }
            },
            {
                "patchline": {
                    "destination": [ "obj-6", 0 ],
                    "source": [ "obj-4", 1 ]
                }
            }
        ],
        "autosave": 0
    }
}